<svg width="19" height="17" viewBox="0 0 19 17" fill="none" xmlns="http://www.w3.org/2000/svg">
<g clip-path="url(#clip0_31_77)">
<path d="M5.62324 11.7291C5.89951 11.7291 6.16446 11.6194 6.35981 11.424C6.55516 11.2287 6.66491 10.9637 6.66491 10.6875C6.66491 10.4112 6.55516 10.1463 6.35981 9.95091C6.16446 9.75556 5.89951 9.64581 5.62324 9.64581C5.34697 9.64581 5.08202 9.75556 4.88667 9.95091C4.69132 10.1463 4.58157 10.4112 4.58157 10.6875C4.58157 10.9637 4.69132 11.2287 4.88667 11.424C5.08202 11.6194 5.34697 11.7291 5.62324 11.7291ZM10.2066 10.6875C10.2066 10.9637 10.0968 11.2287 9.90147 11.424C9.70612 11.6194 9.44117 11.7291 9.16491 11.7291C8.88864 11.7291 8.62369 11.6194 8.42834 11.424C8.23298 11.2287 8.12324 10.9637 8.12324 10.6875C8.12324 10.4112 8.23298 10.1463 8.42834 9.95091C8.62369 9.75556 8.88864 9.64581 9.16491 9.64581C9.44117 9.64581 9.70612 9.75556 9.90147 9.95091C10.0968 10.1463 10.2066 10.4112 10.2066 10.6875ZM12.7066 11.7291C12.9828 11.7291 13.2478 11.6194 13.4431 11.424C13.6385 11.2287 13.7482 10.9637 13.7482 10.6875C13.7482 10.4112 13.6385 10.1463 13.4431 9.95091C13.2478 9.75556 12.9828 9.64581 12.7066 9.64581C12.4303 9.64581 12.1654 9.75556 11.97 9.95091C11.7747 10.1463 11.6649 10.4112 11.6649 10.6875C11.6649 10.9637 11.7747 11.2287 11.97 11.424C12.1654 11.6194 12.4303 11.7291 12.7066 11.7291ZM3.22574 1.42331C3.36257 1.25829 3.5341 1.12546 3.72812 1.03429C3.92213 0.943111 4.13387 0.895831 4.34824 0.895813H13.9816C14.4157 0.895813 14.8274 1.08915 15.1049 1.42331L18.0882 5.02331C18.6516 5.70165 18.1691 6.72915 17.2866 6.72915H16.6649V14.0208C16.6649 14.5733 16.4454 15.1033 16.0547 15.494C15.664 15.8847 15.1341 16.1041 14.5816 16.1041H3.74824C3.19571 16.1041 2.6658 15.8847 2.2751 15.494C1.8844 15.1033 1.66491 14.5733 1.66491 14.0208V6.72915H1.04324C0.161573 6.72915 -0.320927 5.70165 0.241573 5.02248L3.22574 1.42331ZM4.34824 2.14581C4.3177 2.14582 4.28754 2.15255 4.25989 2.16551C4.23224 2.17847 4.20778 2.19735 4.18824 2.22081L1.48657 5.47915H16.8432L14.1424 2.22081C14.1228 2.19724 14.0982 2.1783 14.0704 2.16533C14.0426 2.15237 14.0122 2.1457 13.9816 2.14581H4.34824ZM2.91491 6.72915V14.0208C2.91491 14.2418 3.0027 14.4538 3.15898 14.6101C3.31526 14.7663 3.52723 14.8541 3.74824 14.8541H14.5816C14.8026 14.8541 15.0145 14.7663 15.1708 14.6101C15.3271 14.4538 15.4149 14.2418 15.4149 14.0208V6.72915H2.91491Z" fill="black"/>
</g>
<defs>
<clipPath id="clip0_31_77">
<rect width="18.3303" height="15.2083" fill="white" transform="translate(0 0.895813)"/>
</clipPath>
</defs>
</svg>
